<mxfile host="app.diagrams.net" modified="2021-09-21T01:28:27.619Z" agent="5.0 (Macintosh; Intel Mac OS X 10_15_7) AppleWebKit/537.36 (KHTML, like Gecko) Chrome/92.0.4515.107 Safari/537.36" etag="uvqr0VtWwfzf8-vbh_qd" version="15.2.9" type="github">
  <diagram id="G2QtwuWoUrFbCwJYbL0M" name="Page-1">
    <mxGraphModel dx="2010" dy="631" grid="1" gridSize="10" guides="1" tooltips="1" connect="1" arrows="1" fold="1" page="1" pageScale="1" pageWidth="827" pageHeight="1169" math="0" shadow="0">
      <root>
        <mxCell id="0" />
        <mxCell id="1" parent="0" />
        <mxCell id="8I7yJncR_FWvkPKMEYaM-1" value="" style="rounded=1;arcSize=10;dashed=1;strokeColor=#F59D56;fillColor=none;gradientColor=none;dashPattern=8 4;strokeWidth=2;" vertex="1" parent="1">
          <mxGeometry x="-530" y="160" width="2030" height="820" as="geometry" />
        </mxCell>
        <mxCell id="8I7yJncR_FWvkPKMEYaM-2" value="" style="aspect=fixed;html=1;points=[];align=center;image;fontSize=12;image=img/lib/azure2/networking/Public_IP_Addresses.svg;" vertex="1" parent="1">
          <mxGeometry x="380" y="300" width="65" height="52" as="geometry" />
        </mxCell>
        <mxCell id="8I7yJncR_FWvkPKMEYaM-3" value="207.248.80.89" style="text;html=1;strokeColor=none;fillColor=none;align=center;verticalAlign=middle;whiteSpace=wrap;rounded=0;" vertex="1" parent="1">
          <mxGeometry x="366.25" y="360" width="92.5" height="20" as="geometry" />
        </mxCell>
        <mxCell id="8I7yJncR_FWvkPKMEYaM-4" style="edgeStyle=orthogonalEdgeStyle;rounded=0;orthogonalLoop=1;jettySize=auto;html=1;" edge="1" parent="1" source="8I7yJncR_FWvkPKMEYaM-5" target="8I7yJncR_FWvkPKMEYaM-12">
          <mxGeometry relative="1" as="geometry" />
        </mxCell>
        <mxCell id="8I7yJncR_FWvkPKMEYaM-5" value="" style="points=[[0.03,0.03,0],[0.5,0,0],[0.97,0.03,0],[1,0.4,0],[0.97,0.745,0],[0.5,1,0],[0.03,0.745,0],[0,0.4,0]];verticalLabelPosition=bottom;html=1;verticalAlign=top;aspect=fixed;align=center;pointerEvents=1;shape=mxgraph.cisco19.workstation;fillColor=#005073;strokeColor=none;" vertex="1" parent="1">
          <mxGeometry x="389" y="30" width="50" height="40" as="geometry" />
        </mxCell>
        <mxCell id="8I7yJncR_FWvkPKMEYaM-6" style="edgeStyle=orthogonalEdgeStyle;rounded=0;orthogonalLoop=1;jettySize=auto;html=1;entryX=1;entryY=0.25;entryDx=0;entryDy=0;" edge="1" parent="1" source="8I7yJncR_FWvkPKMEYaM-12" target="8I7yJncR_FWvkPKMEYaM-41">
          <mxGeometry relative="1" as="geometry" />
        </mxCell>
        <mxCell id="8I7yJncR_FWvkPKMEYaM-7" style="edgeStyle=orthogonalEdgeStyle;rounded=0;orthogonalLoop=1;jettySize=auto;html=1;exitX=0.994;exitY=0.082;exitDx=0;exitDy=0;entryX=-0.016;entryY=0.137;entryDx=0;entryDy=0;exitPerimeter=0;entryPerimeter=0;" edge="1" parent="1" source="8I7yJncR_FWvkPKMEYaM-12" target="8I7yJncR_FWvkPKMEYaM-42">
          <mxGeometry relative="1" as="geometry">
            <Array as="points">
              <mxPoint x="600" y="236" />
              <mxPoint x="677" y="236" />
            </Array>
          </mxGeometry>
        </mxCell>
        <mxCell id="8I7yJncR_FWvkPKMEYaM-8" style="edgeStyle=orthogonalEdgeStyle;rounded=0;orthogonalLoop=1;jettySize=auto;html=1;entryX=0;entryY=0.949;entryDx=0;entryDy=0;entryPerimeter=0;" edge="1" parent="1" source="8I7yJncR_FWvkPKMEYaM-12" target="8I7yJncR_FWvkPKMEYaM-69">
          <mxGeometry relative="1" as="geometry">
            <Array as="points">
              <mxPoint x="650" y="290" />
              <mxPoint x="650" y="450" />
              <mxPoint x="860" y="450" />
              <mxPoint x="860" y="404" />
            </Array>
          </mxGeometry>
        </mxCell>
        <mxCell id="8I7yJncR_FWvkPKMEYaM-9" style="edgeStyle=orthogonalEdgeStyle;rounded=0;orthogonalLoop=1;jettySize=auto;html=1;entryX=0.842;entryY=-0.002;entryDx=0;entryDy=0;entryPerimeter=0;" edge="1" parent="1" source="8I7yJncR_FWvkPKMEYaM-12" target="8I7yJncR_FWvkPKMEYaM-21">
          <mxGeometry relative="1" as="geometry">
            <Array as="points">
              <mxPoint x="510" y="530" />
              <mxPoint x="486" y="530" />
            </Array>
          </mxGeometry>
        </mxCell>
        <mxCell id="8I7yJncR_FWvkPKMEYaM-10" style="edgeStyle=orthogonalEdgeStyle;rounded=0;orthogonalLoop=1;jettySize=auto;html=1;exitX=1;exitY=0.5;exitDx=0;exitDy=0;" edge="1" parent="1" source="8I7yJncR_FWvkPKMEYaM-12">
          <mxGeometry relative="1" as="geometry">
            <mxPoint x="1140" y="400" as="targetPoint" />
            <Array as="points">
              <mxPoint x="550" y="320" />
              <mxPoint x="550" y="520" />
              <mxPoint x="1141" y="520" />
            </Array>
          </mxGeometry>
        </mxCell>
        <mxCell id="8I7yJncR_FWvkPKMEYaM-11" style="edgeStyle=orthogonalEdgeStyle;rounded=0;orthogonalLoop=1;jettySize=auto;html=1;exitX=1;exitY=0.75;exitDx=0;exitDy=0;entryX=1;entryY=1;entryDx=0;entryDy=0;" edge="1" parent="1" source="8I7yJncR_FWvkPKMEYaM-12" target="8I7yJncR_FWvkPKMEYaM-81">
          <mxGeometry relative="1" as="geometry">
            <Array as="points">
              <mxPoint x="540" y="370" />
              <mxPoint x="540" y="580" />
              <mxPoint x="1365" y="580" />
            </Array>
          </mxGeometry>
        </mxCell>
        <mxCell id="8I7yJncR_FWvkPKMEYaM-12" value="" style="rounded=1;arcSize=10;dashed=1;fillColor=none;gradientColor=none;dashPattern=1 1;strokeWidth=2;" vertex="1" parent="1">
          <mxGeometry x="240" y="220" width="280" height="199.5" as="geometry" />
        </mxCell>
        <mxCell id="8I7yJncR_FWvkPKMEYaM-13" value="" style="shape=image;html=1;verticalAlign=top;verticalLabelPosition=bottom;labelBackgroundColor=#ffffff;imageAspect=0;aspect=fixed;image=https://cdn4.iconfinder.com/data/icons/logos-brands-5/24/nginx-128.png" vertex="1" parent="1">
          <mxGeometry x="320" y="296" width="60" height="60" as="geometry" />
        </mxCell>
        <mxCell id="8I7yJncR_FWvkPKMEYaM-14" value="Servidor 192.168.80.194" style="text;html=1;strokeColor=none;fillColor=none;align=center;verticalAlign=middle;whiteSpace=wrap;rounded=0;" vertex="1" parent="1">
          <mxGeometry x="299" y="419.5" width="140" height="20" as="geometry" />
        </mxCell>
        <mxCell id="8I7yJncR_FWvkPKMEYaM-15" value="SDW201118601" style="text;html=1;strokeColor=none;fillColor=none;align=center;verticalAlign=middle;whiteSpace=wrap;rounded=0;" vertex="1" parent="1">
          <mxGeometry x="366.25" y="770" width="92.5" height="20" as="geometry" />
        </mxCell>
        <mxCell id="8I7yJncR_FWvkPKMEYaM-16" style="edgeStyle=orthogonalEdgeStyle;rounded=0;orthogonalLoop=1;jettySize=auto;html=1;exitX=0.75;exitY=1;exitDx=0;exitDy=0;entryX=0.25;entryY=0;entryDx=0;entryDy=0;" edge="1" parent="1" source="8I7yJncR_FWvkPKMEYaM-21" target="8I7yJncR_FWvkPKMEYaM-43">
          <mxGeometry relative="1" as="geometry" />
        </mxCell>
        <mxCell id="8I7yJncR_FWvkPKMEYaM-17" style="edgeStyle=orthogonalEdgeStyle;rounded=0;orthogonalLoop=1;jettySize=auto;html=1;exitX=0.857;exitY=1.005;exitDx=0;exitDy=0;entryX=-0.035;entryY=0.318;entryDx=0;entryDy=0;entryPerimeter=0;exitPerimeter=0;" edge="1" parent="1" source="8I7yJncR_FWvkPKMEYaM-21" target="8I7yJncR_FWvkPKMEYaM-78">
          <mxGeometry relative="1" as="geometry">
            <Array as="points">
              <mxPoint x="490" y="930" />
              <mxPoint x="1190" y="930" />
              <mxPoint x="1190" y="1544" />
            </Array>
          </mxGeometry>
        </mxCell>
        <mxCell id="8I7yJncR_FWvkPKMEYaM-18" style="edgeStyle=orthogonalEdgeStyle;rounded=0;orthogonalLoop=1;jettySize=auto;html=1;entryX=0.75;entryY=1;entryDx=0;entryDy=0;" edge="1" parent="1" source="8I7yJncR_FWvkPKMEYaM-21" target="8I7yJncR_FWvkPKMEYaM-69">
          <mxGeometry relative="1" as="geometry" />
        </mxCell>
        <mxCell id="8I7yJncR_FWvkPKMEYaM-19" style="edgeStyle=orthogonalEdgeStyle;rounded=0;orthogonalLoop=1;jettySize=auto;html=1;exitX=1;exitY=0.25;exitDx=0;exitDy=0;entryX=0.75;entryY=1;entryDx=0;entryDy=0;" edge="1" parent="1" source="8I7yJncR_FWvkPKMEYaM-21" target="8I7yJncR_FWvkPKMEYaM-68">
          <mxGeometry relative="1" as="geometry" />
        </mxCell>
        <mxCell id="8I7yJncR_FWvkPKMEYaM-20" style="edgeStyle=orthogonalEdgeStyle;rounded=0;orthogonalLoop=1;jettySize=auto;html=1;entryX=1;entryY=0.5;entryDx=0;entryDy=0;" edge="1" parent="1" source="8I7yJncR_FWvkPKMEYaM-21" target="8I7yJncR_FWvkPKMEYaM-96">
          <mxGeometry relative="1" as="geometry" />
        </mxCell>
        <mxCell id="8I7yJncR_FWvkPKMEYaM-21" value="" style="rounded=1;arcSize=10;dashed=1;fillColor=none;gradientColor=none;dashPattern=1 1;strokeWidth=2;" vertex="1" parent="1">
          <mxGeometry x="250" y="640" width="280" height="199.5" as="geometry" />
        </mxCell>
        <mxCell id="8I7yJncR_FWvkPKMEYaM-22" value="" style="shape=image;html=1;verticalAlign=top;verticalLabelPosition=bottom;labelBackgroundColor=#ffffff;imageAspect=0;aspect=fixed;image=https://cdn4.iconfinder.com/data/icons/logos-brands-5/24/nginx-128.png" vertex="1" parent="1">
          <mxGeometry x="320" y="706" width="60" height="60" as="geometry" />
        </mxCell>
        <mxCell id="8I7yJncR_FWvkPKMEYaM-23" value="80.85" style="text;html=1;strokeColor=none;fillColor=none;align=center;verticalAlign=middle;whiteSpace=wrap;rounded=0;" vertex="1" parent="1">
          <mxGeometry x="470" y="426" width="40" height="20" as="geometry" />
        </mxCell>
        <mxCell id="8I7yJncR_FWvkPKMEYaM-24" value="" style="rounded=1;arcSize=10;dashed=0;fillColor=none;gradientColor=none;strokeWidth=2;" vertex="1" parent="1">
          <mxGeometry x="-256.44" y="1210" width="680" height="200" as="geometry" />
        </mxCell>
        <mxCell id="8I7yJncR_FWvkPKMEYaM-25" value="" style="dashed=0;html=1;shape=mxgraph.aws3.virtual_private_cloud;fillColor=#F58536;gradientColor=none;dashed=0;" vertex="1" parent="1">
          <mxGeometry x="-236.44" y="1190" width="52" height="36" as="geometry" />
        </mxCell>
        <mxCell id="8I7yJncR_FWvkPKMEYaM-26" value="Private subnet" style="points=[[0,0],[0.25,0],[0.5,0],[0.75,0],[1,0],[1,0.25],[1,0.5],[1,0.75],[1,1],[0.75,1],[0.5,1],[0.25,1],[0,1],[0,0.75],[0,0.5],[0,0.25]];outlineConnect=0;gradientColor=none;html=1;whiteSpace=wrap;fontSize=12;fontStyle=0;shape=mxgraph.aws4.group;grIcon=mxgraph.aws4.group_security_group;grStroke=0;strokeColor=#147EBA;fillColor=#E6F2F8;verticalAlign=top;align=left;spacingLeft=30;fontColor=#147EBA;dashed=0;" vertex="1" parent="1">
          <mxGeometry x="-226.44" y="1250" width="610" height="130" as="geometry" />
        </mxCell>
        <mxCell id="8I7yJncR_FWvkPKMEYaM-27" value="" style="outlineConnect=0;dashed=0;verticalLabelPosition=bottom;verticalAlign=top;align=center;html=1;shape=mxgraph.aws3.ec2;fillColor=#F58534;gradientColor=none;" vertex="1" parent="1">
          <mxGeometry x="-196.44" y="1280" width="76.5" height="93" as="geometry" />
        </mxCell>
        <mxCell id="8I7yJncR_FWvkPKMEYaM-28" value="panel.heb.com.mx" style="text;html=1;strokeColor=none;fillColor=none;align=center;verticalAlign=middle;whiteSpace=wrap;rounded=0;" vertex="1" parent="1">
          <mxGeometry x="-206.44" y="1390" width="84" height="20" as="geometry" />
        </mxCell>
        <mxCell id="8I7yJncR_FWvkPKMEYaM-29" value="Servidor 192.168.97.185" style="text;html=1;strokeColor=none;fillColor=none;align=center;verticalAlign=middle;whiteSpace=wrap;rounded=0;" vertex="1" parent="1">
          <mxGeometry x="240" y="840" width="160" height="20" as="geometry" />
        </mxCell>
        <mxCell id="8I7yJncR_FWvkPKMEYaM-30" value="SRW2011193N" style="text;html=1;strokeColor=none;fillColor=none;align=center;verticalAlign=middle;whiteSpace=wrap;rounded=0;" vertex="1" parent="1">
          <mxGeometry x="370" y="380" width="100" height="20" as="geometry" />
        </mxCell>
        <mxCell id="8I7yJncR_FWvkPKMEYaM-31" value="https://instaleap.hebdigital.net" style="text;html=1;strokeColor=none;fillColor=none;align=center;verticalAlign=middle;whiteSpace=wrap;rounded=0;" vertex="1" parent="1">
          <mxGeometry x="197.56" y="60" width="196" height="20" as="geometry" />
        </mxCell>
        <mxCell id="8I7yJncR_FWvkPKMEYaM-32" style="edgeStyle=orthogonalEdgeStyle;rounded=0;orthogonalLoop=1;jettySize=auto;html=1;exitX=0;exitY=0.5;exitDx=0;exitDy=0;" edge="1" parent="1" source="8I7yJncR_FWvkPKMEYaM-34">
          <mxGeometry relative="1" as="geometry">
            <mxPoint x="299" y="340" as="targetPoint" />
          </mxGeometry>
        </mxCell>
        <mxCell id="8I7yJncR_FWvkPKMEYaM-33" style="edgeStyle=orthogonalEdgeStyle;rounded=0;orthogonalLoop=1;jettySize=auto;html=1;entryX=0.976;entryY=0.972;entryDx=0;entryDy=0;entryPerimeter=0;" edge="1" parent="1" source="8I7yJncR_FWvkPKMEYaM-34" target="8I7yJncR_FWvkPKMEYaM-12">
          <mxGeometry relative="1" as="geometry">
            <Array as="points">
              <mxPoint x="375" y="280" />
              <mxPoint x="510" y="280" />
              <mxPoint x="510" y="414" />
            </Array>
          </mxGeometry>
        </mxCell>
        <mxCell id="8I7yJncR_FWvkPKMEYaM-34" value="80.84" style="rhombus;whiteSpace=wrap;html=1;" vertex="1" parent="1">
          <mxGeometry x="340" y="230" width="70" height="30" as="geometry" />
        </mxCell>
        <mxCell id="8I7yJncR_FWvkPKMEYaM-35" value="Si" style="text;html=1;strokeColor=none;fillColor=none;align=center;verticalAlign=middle;whiteSpace=wrap;rounded=0;" vertex="1" parent="1">
          <mxGeometry x="340" y="260" width="40" height="20" as="geometry" />
        </mxCell>
        <mxCell id="8I7yJncR_FWvkPKMEYaM-36" value="No" style="text;html=1;strokeColor=none;fillColor=none;align=center;verticalAlign=middle;whiteSpace=wrap;rounded=0;" vertex="1" parent="1">
          <mxGeometry x="430" y="240" width="40" height="20" as="geometry" />
        </mxCell>
        <mxCell id="8I7yJncR_FWvkPKMEYaM-37" style="edgeStyle=orthogonalEdgeStyle;rounded=0;orthogonalLoop=1;jettySize=auto;html=1;" edge="1" parent="1" source="8I7yJncR_FWvkPKMEYaM-38" target="8I7yJncR_FWvkPKMEYaM-24">
          <mxGeometry relative="1" as="geometry">
            <Array as="points">
              <mxPoint x="200" y="360" />
            </Array>
          </mxGeometry>
        </mxCell>
        <mxCell id="8I7yJncR_FWvkPKMEYaM-38" value="" style="html=1;aspect=fixed;strokeColor=none;shadow=0;align=center;verticalAlign=top;fillColor=#3B8DF1;shape=mxgraph.gcp2.process" vertex="1" parent="1">
          <mxGeometry x="286.4" y="340" width="33.6" height="40" as="geometry" />
        </mxCell>
        <mxCell id="8I7yJncR_FWvkPKMEYaM-39" value=":3000" style="text;html=1;strokeColor=none;fillColor=none;align=center;verticalAlign=middle;whiteSpace=wrap;rounded=0;" vertex="1" parent="1">
          <mxGeometry x="300" y="220" width="40" height="20" as="geometry" />
        </mxCell>
        <mxCell id="8I7yJncR_FWvkPKMEYaM-40" value=":3000" style="text;html=1;strokeColor=none;fillColor=none;align=center;verticalAlign=middle;whiteSpace=wrap;rounded=0;" vertex="1" parent="1">
          <mxGeometry x="420" y="640" width="40" height="20" as="geometry" />
        </mxCell>
        <mxCell id="8I7yJncR_FWvkPKMEYaM-41" value="" style="rounded=1;arcSize=10;dashed=1;fillColor=none;gradientColor=none;dashPattern=1 1;strokeWidth=2;" vertex="1" parent="1">
          <mxGeometry x="-440" y="240" width="520" height="320" as="geometry" />
        </mxCell>
        <mxCell id="8I7yJncR_FWvkPKMEYaM-42" value="" style="rounded=1;arcSize=10;dashed=1;fillColor=none;gradientColor=none;dashPattern=1 1;strokeWidth=2;" vertex="1" parent="1">
          <mxGeometry x="680" y="214.75" width="160" height="199.5" as="geometry" />
        </mxCell>
        <mxCell id="8I7yJncR_FWvkPKMEYaM-43" value="" style="rounded=1;arcSize=10;dashed=0;fillColor=none;gradientColor=none;strokeWidth=2;" vertex="1" parent="1">
          <mxGeometry x="476.44" y="1210" width="680" height="200" as="geometry" />
        </mxCell>
        <mxCell id="8I7yJncR_FWvkPKMEYaM-44" value="" style="dashed=0;html=1;shape=mxgraph.aws3.virtual_private_cloud;fillColor=#F58536;gradientColor=none;dashed=0;" vertex="1" parent="1">
          <mxGeometry x="496.44" y="1190" width="52" height="36" as="geometry" />
        </mxCell>
        <mxCell id="8I7yJncR_FWvkPKMEYaM-45" value="Private subnet" style="points=[[0,0],[0.25,0],[0.5,0],[0.75,0],[1,0],[1,0.25],[1,0.5],[1,0.75],[1,1],[0.75,1],[0.5,1],[0.25,1],[0,1],[0,0.75],[0,0.5],[0,0.25]];outlineConnect=0;gradientColor=none;html=1;whiteSpace=wrap;fontSize=12;fontStyle=0;shape=mxgraph.aws4.group;grIcon=mxgraph.aws4.group_security_group;grStroke=0;strokeColor=#147EBA;fillColor=#E6F2F8;verticalAlign=top;align=left;spacingLeft=30;fontColor=#147EBA;dashed=0;" vertex="1" parent="1">
          <mxGeometry x="506.44" y="1250" width="610" height="130" as="geometry" />
        </mxCell>
        <mxCell id="8I7yJncR_FWvkPKMEYaM-46" value="" style="outlineConnect=0;dashed=0;verticalLabelPosition=bottom;verticalAlign=top;align=center;html=1;shape=mxgraph.aws3.ec2;fillColor=#F58534;gradientColor=none;" vertex="1" parent="1">
          <mxGeometry x="536.44" y="1280" width="76.5" height="93" as="geometry" />
        </mxCell>
        <mxCell id="8I7yJncR_FWvkPKMEYaM-47" value="staging.hebdigital.net" style="text;html=1;strokeColor=none;fillColor=none;align=center;verticalAlign=middle;whiteSpace=wrap;rounded=0;" vertex="1" parent="1">
          <mxGeometry x="586.44" y="1270" width="160" height="20" as="geometry" />
        </mxCell>
        <mxCell id="8I7yJncR_FWvkPKMEYaM-48" value="PRODUCCION" style="text;html=1;strokeColor=none;fillColor=none;align=center;verticalAlign=middle;whiteSpace=wrap;rounded=0;" vertex="1" parent="1">
          <mxGeometry x="-184.44" y="1190" width="88" height="20" as="geometry" />
        </mxCell>
        <mxCell id="8I7yJncR_FWvkPKMEYaM-49" value="STAGING" style="text;html=1;strokeColor=none;fillColor=none;align=center;verticalAlign=middle;whiteSpace=wrap;rounded=0;" vertex="1" parent="1">
          <mxGeometry x="547.44" y="1190" width="90" height="20" as="geometry" />
        </mxCell>
        <mxCell id="8I7yJncR_FWvkPKMEYaM-50" value="" style="rounded=1;arcSize=10;dashed=1;strokeColor=#ff0000;fillColor=none;gradientColor=none;dashPattern=8 4;strokeWidth=2;" vertex="1" parent="1">
          <mxGeometry x="-236.44" y="1230" width="150" height="160" as="geometry" />
        </mxCell>
        <mxCell id="8I7yJncR_FWvkPKMEYaM-51" value="" style="outlineConnect=0;dashed=0;verticalLabelPosition=bottom;verticalAlign=top;align=center;html=1;shape=mxgraph.aws3.ec2;fillColor=#F58534;gradientColor=none;" vertex="1" parent="1">
          <mxGeometry x="283.56" y="1285" width="76.5" height="93" as="geometry" />
        </mxCell>
        <mxCell id="8I7yJncR_FWvkPKMEYaM-52" value="mobile.hebdigital.net" style="text;html=1;strokeColor=none;fillColor=none;align=center;verticalAlign=middle;whiteSpace=wrap;rounded=0;" vertex="1" parent="1">
          <mxGeometry x="260.9400000000001" y="1390" width="110.25" height="20" as="geometry" />
        </mxCell>
        <mxCell id="8I7yJncR_FWvkPKMEYaM-53" value="" style="rounded=1;arcSize=10;dashed=1;strokeColor=#ff0000;fillColor=none;gradientColor=none;dashPattern=8 4;strokeWidth=2;" vertex="1" parent="1">
          <mxGeometry x="243.56" y="1235" width="150" height="160" as="geometry" />
        </mxCell>
        <mxCell id="8I7yJncR_FWvkPKMEYaM-54" value="" style="outlineConnect=0;dashed=0;verticalLabelPosition=bottom;verticalAlign=top;align=center;html=1;shape=mxgraph.aws3.ec2;fillColor=#F58534;gradientColor=none;" vertex="1" parent="1">
          <mxGeometry x="43.56" y="1285" width="76.5" height="93" as="geometry" />
        </mxCell>
        <mxCell id="8I7yJncR_FWvkPKMEYaM-55" value="heb.com.mx" style="text;html=1;strokeColor=none;fillColor=none;align=center;verticalAlign=middle;whiteSpace=wrap;rounded=0;" vertex="1" parent="1">
          <mxGeometry x="38.31" y="1390" width="84" height="20" as="geometry" />
        </mxCell>
        <mxCell id="8I7yJncR_FWvkPKMEYaM-56" value="" style="rounded=1;arcSize=10;dashed=1;strokeColor=#ff0000;fillColor=none;gradientColor=none;dashPattern=8 4;strokeWidth=2;" vertex="1" parent="1">
          <mxGeometry x="3.5600000000000023" y="1235" width="150" height="160" as="geometry" />
        </mxCell>
        <mxCell id="8I7yJncR_FWvkPKMEYaM-57" value="https://staging.hebdigital.net/rest/v1" style="text;html=1;strokeColor=none;fillColor=none;align=center;verticalAlign=middle;whiteSpace=wrap;rounded=0;" vertex="1" parent="1">
          <mxGeometry x="265" y="610" width="190" height="20" as="geometry" />
        </mxCell>
        <mxCell id="8I7yJncR_FWvkPKMEYaM-58" value="https://mobile.hebdigital.net/rest/v1&lt;br&gt;https://panel.heb.com.mx/rest/v1&lt;br&gt;https://heb.com.mx/rest/v1" style="text;html=1;strokeColor=none;fillColor=none;align=center;verticalAlign=middle;whiteSpace=wrap;rounded=0;" vertex="1" parent="1">
          <mxGeometry x="210" y="446" width="190" height="50" as="geometry" />
        </mxCell>
        <mxCell id="8I7yJncR_FWvkPKMEYaM-59" value="5000" style="text;html=1;strokeColor=none;fillColor=none;align=center;verticalAlign=middle;whiteSpace=wrap;rounded=0;" vertex="1" parent="1">
          <mxGeometry x="200" y="291" width="40" height="20" as="geometry" />
        </mxCell>
        <mxCell id="8I7yJncR_FWvkPKMEYaM-60" value="SRD201080" style="text;html=1;strokeColor=none;fillColor=none;align=center;verticalAlign=middle;whiteSpace=wrap;rounded=0;" vertex="1" parent="1">
          <mxGeometry x="-85.38000000000011" y="515" width="92.5" height="20" as="geometry" />
        </mxCell>
        <mxCell id="8I7yJncR_FWvkPKMEYaM-61" value="" style="aspect=fixed;html=1;points=[];align=center;image;fontSize=12;image=img/lib/azure2/databases/SQL_Server.svg;" vertex="1" parent="1">
          <mxGeometry x="-392.1300000000001" y="446" width="68" height="68" as="geometry" />
        </mxCell>
        <mxCell id="8I7yJncR_FWvkPKMEYaM-62" value="SRD201050" style="text;html=1;strokeColor=none;fillColor=none;align=center;verticalAlign=middle;whiteSpace=wrap;rounded=0;" vertex="1" parent="1">
          <mxGeometry x="-404.3800000000001" y="515" width="92.5" height="20" as="geometry" />
        </mxCell>
        <mxCell id="8I7yJncR_FWvkPKMEYaM-63" value="" style="aspect=fixed;html=1;points=[];align=center;image;fontSize=12;image=img/lib/azure2/databases/SQL_Server.svg;" vertex="1" parent="1">
          <mxGeometry x="-73.13000000000011" y="446" width="68" height="68" as="geometry" />
        </mxCell>
        <mxCell id="8I7yJncR_FWvkPKMEYaM-64" value="SRD2011155" style="text;html=1;strokeColor=none;fillColor=none;align=center;verticalAlign=middle;whiteSpace=wrap;rounded=0;" vertex="1" parent="1">
          <mxGeometry x="-85.38000000000011" y="351" width="92.5" height="20" as="geometry" />
        </mxCell>
        <mxCell id="8I7yJncR_FWvkPKMEYaM-65" value="" style="aspect=fixed;html=1;points=[];align=center;image;fontSize=12;image=img/lib/azure2/databases/SQL_Server.svg;" vertex="1" parent="1">
          <mxGeometry x="-73.13000000000011" y="274.25" width="68" height="68" as="geometry" />
        </mxCell>
        <mxCell id="8I7yJncR_FWvkPKMEYaM-66" value="SRD2010107" style="text;html=1;strokeColor=none;fillColor=none;align=center;verticalAlign=middle;whiteSpace=wrap;rounded=0;" vertex="1" parent="1">
          <mxGeometry x="-407.3800000000001" y="341" width="92.5" height="20" as="geometry" />
        </mxCell>
        <mxCell id="8I7yJncR_FWvkPKMEYaM-67" value="" style="aspect=fixed;html=1;points=[];align=center;image;fontSize=12;image=img/lib/azure2/databases/SQL_Server.svg;" vertex="1" parent="1">
          <mxGeometry x="-392.1300000000001" y="267" width="68" height="68" as="geometry" />
        </mxCell>
        <mxCell id="8I7yJncR_FWvkPKMEYaM-68" value="" style="rounded=1;arcSize=10;dashed=1;fillColor=none;gradientColor=none;dashPattern=1 1;strokeWidth=2;" vertex="1" parent="1">
          <mxGeometry x="1140" y="214.75" width="160" height="199.5" as="geometry" />
        </mxCell>
        <mxCell id="8I7yJncR_FWvkPKMEYaM-69" value="" style="rounded=1;arcSize=10;dashed=1;fillColor=none;gradientColor=none;dashPattern=1 1;strokeWidth=2;" vertex="1" parent="1">
          <mxGeometry x="910" y="214.75" width="160" height="199.5" as="geometry" />
        </mxCell>
        <mxCell id="8I7yJncR_FWvkPKMEYaM-70" value="" style="shape=image;html=1;verticalAlign=top;verticalLabelPosition=bottom;labelBackgroundColor=#ffffff;imageAspect=0;aspect=fixed;image=https://cdn3.iconfinder.com/data/icons/UltimateGnome/128x128/mimetypes/text-x-java.png" vertex="1" parent="1">
          <mxGeometry x="696" y="260.5" width="68" height="68" as="geometry" />
        </mxCell>
        <mxCell id="8I7yJncR_FWvkPKMEYaM-71" value="SRA2011123" style="text;html=1;strokeColor=none;fillColor=none;align=center;verticalAlign=middle;whiteSpace=wrap;rounded=0;" vertex="1" parent="1">
          <mxGeometry x="704.5" y="419.5" width="80" height="20" as="geometry" />
        </mxCell>
        <mxCell id="8I7yJncR_FWvkPKMEYaM-72" value="http://SRA2011123/" style="text;html=1;strokeColor=none;fillColor=none;align=center;verticalAlign=middle;whiteSpace=wrap;rounded=0;" vertex="1" parent="1">
          <mxGeometry x="524.69" y="240.5" width="100" height="20" as="geometry" />
        </mxCell>
        <UserObject label="192.168.93.65" link="192.168.93.65" id="8I7yJncR_FWvkPKMEYaM-73">
          <mxCell style="text;html=1;strokeColor=none;fillColor=none;align=center;verticalAlign=middle;whiteSpace=wrap;rounded=0;" vertex="1" parent="1">
            <mxGeometry x="920" y="419.5" width="90" height="20" as="geometry" />
          </mxCell>
        </UserObject>
        <UserObject label="http://192.168.93.65:9505/InventarioBodega_PortTypeEndpoint1?wsdl" link="http://192.168.93.65:9505/InventarioBodega_PortTypeEndpoint1?wsdl" id="8I7yJncR_FWvkPKMEYaM-74">
          <mxCell style="text;html=1;strokeColor=none;fillColor=none;align=center;verticalAlign=middle;whiteSpace=wrap;rounded=0;" vertex="1" parent="1">
            <mxGeometry x="565" y="460" width="390" height="20" as="geometry" />
          </mxCell>
        </UserObject>
        <mxCell id="8I7yJncR_FWvkPKMEYaM-75" value="" style="rounded=1;arcSize=10;dashed=0;fillColor=none;gradientColor=none;strokeWidth=2;" vertex="1" parent="1">
          <mxGeometry x="1210" y="1215" width="310" height="505" as="geometry" />
        </mxCell>
        <mxCell id="8I7yJncR_FWvkPKMEYaM-76" value="INSTALEAP" style="text;html=1;strokeColor=none;fillColor=none;align=center;verticalAlign=middle;whiteSpace=wrap;rounded=0;" vertex="1" parent="1">
          <mxGeometry x="1230" y="1190" width="90" height="20" as="geometry" />
        </mxCell>
        <mxCell id="8I7yJncR_FWvkPKMEYaM-77" value="" style="rounded=1;arcSize=10;dashed=1;strokeColor=#F59D56;fillColor=none;gradientColor=none;dashPattern=8 4;strokeWidth=2;" vertex="1" parent="1">
          <mxGeometry x="1260" y="1250" width="199.5" height="199.5" as="geometry" />
        </mxCell>
        <mxCell id="8I7yJncR_FWvkPKMEYaM-78" value="" style="rounded=1;arcSize=10;dashed=1;strokeColor=#F59D56;fillColor=none;gradientColor=none;dashPattern=8 4;strokeWidth=2;" vertex="1" parent="1">
          <mxGeometry x="1260" y="1480.5" width="199.5" height="199.5" as="geometry" />
        </mxCell>
        <mxCell id="8I7yJncR_FWvkPKMEYaM-79" value="" style="outlineConnect=0;dashed=0;verticalLabelPosition=bottom;verticalAlign=top;align=center;html=1;shape=mxgraph.aws3.android;fillColor=#8CC64F;gradientColor=none;" vertex="1" parent="1">
          <mxGeometry x="1320" y="1280" width="73.5" height="84" as="geometry" />
        </mxCell>
        <mxCell id="8I7yJncR_FWvkPKMEYaM-80" value="" style="outlineConnect=0;dashed=0;verticalLabelPosition=bottom;verticalAlign=top;align=center;html=1;shape=mxgraph.aws3.android;fillColor=#8CC64F;gradientColor=none;" vertex="1" parent="1">
          <mxGeometry x="1320" y="1520" width="73.5" height="84" as="geometry" />
        </mxCell>
        <mxCell id="8I7yJncR_FWvkPKMEYaM-81" value="PRODUCCION" style="text;html=1;strokeColor=none;fillColor=none;align=center;verticalAlign=middle;whiteSpace=wrap;rounded=0;" vertex="1" parent="1">
          <mxGeometry x="1260" y="1230" width="105" height="20" as="geometry" />
        </mxCell>
        <mxCell id="8I7yJncR_FWvkPKMEYaM-82" value="STAGING" style="text;html=1;strokeColor=none;fillColor=none;align=center;verticalAlign=middle;whiteSpace=wrap;rounded=0;" vertex="1" parent="1">
          <mxGeometry x="1270" y="1457.5" width="60" height="20" as="geometry" />
        </mxCell>
        <UserObject label="https://api.instaleap.io" link="https://api.instaleap.io" id="8I7yJncR_FWvkPKMEYaM-83">
          <mxCell style="text;html=1;strokeColor=none;fillColor=none;align=center;verticalAlign=middle;whiteSpace=wrap;rounded=0;" vertex="1" parent="1">
            <mxGeometry x="550" y="580" width="130" height="20" as="geometry" />
          </mxCell>
        </UserObject>
        <UserObject label="https://api.xandar.instaleap.io" link="https://api.xandar.instaleap.io" id="8I7yJncR_FWvkPKMEYaM-84">
          <mxCell style="text;html=1;strokeColor=none;fillColor=none;align=center;verticalAlign=middle;whiteSpace=wrap;rounded=0;" vertex="1" parent="1">
            <mxGeometry x="489.69" y="930" width="170" height="20" as="geometry" />
          </mxCell>
        </UserObject>
        <mxCell id="8I7yJncR_FWvkPKMEYaM-85" value="" style="outlineConnect=0;dashed=0;verticalLabelPosition=bottom;verticalAlign=top;align=center;html=1;shape=mxgraph.aws3.android;fillColor=#115193;gradientColor=none;" vertex="1" parent="1">
          <mxGeometry x="936.5" y="244.5" width="73.5" height="84" as="geometry" />
        </mxCell>
        <mxCell id="8I7yJncR_FWvkPKMEYaM-86" value="https://srw2011223.ad.heb.com.mx:8443/api/channel/{channel}/customer/{idCliente}" style="text;html=1;strokeColor=none;fillColor=none;align=center;verticalAlign=middle;whiteSpace=wrap;rounded=0;" vertex="1" parent="1">
          <mxGeometry x="560" y="520" width="450" height="20" as="geometry" />
        </mxCell>
        <mxCell id="8I7yJncR_FWvkPKMEYaM-87" value="" style="outlineConnect=0;dashed=0;verticalLabelPosition=bottom;verticalAlign=top;align=center;html=1;shape=mxgraph.aws3.android;fillColor=#8CC64F;gradientColor=none;" vertex="1" parent="1">
          <mxGeometry x="1183.25" y="240.5" width="73.5" height="84" as="geometry" />
        </mxCell>
        <mxCell id="8I7yJncR_FWvkPKMEYaM-88" value="" style="rounded=1;arcSize=10;dashed=1;strokeColor=#ff0000;fillColor=none;gradientColor=none;dashPattern=8 4;strokeWidth=2;" vertex="1" parent="1">
          <mxGeometry x="-455.94" y="91.5" width="605.94" height="978.5" as="geometry" />
        </mxCell>
        <mxCell id="8I7yJncR_FWvkPKMEYaM-89" value="" style="rounded=1;arcSize=10;dashed=1;fillColor=none;gradientColor=none;dashPattern=1 1;strokeWidth=2;strokeColor=#2D0DFF;" vertex="1" parent="1">
          <mxGeometry x="-565" y="111" width="2115" height="489" as="geometry" />
        </mxCell>
        <mxCell id="8I7yJncR_FWvkPKMEYaM-90" value="" style="rounded=1;arcSize=10;dashed=1;fillColor=none;gradientColor=none;dashPattern=1 1;strokeWidth=2;strokeColor=#006600;" vertex="1" parent="1">
          <mxGeometry x="-560" y="610" width="2110" height="410" as="geometry" />
        </mxCell>
        <mxCell id="8I7yJncR_FWvkPKMEYaM-91" value="" style="outlineConnect=0;dashed=0;verticalLabelPosition=bottom;verticalAlign=top;align=center;html=1;shape=mxgraph.aws3.ec2;fillColor=#F58534;gradientColor=none;" vertex="1" parent="1">
          <mxGeometry x="900" y="1271" width="76.5" height="93" as="geometry" />
        </mxCell>
        <mxCell id="8I7yJncR_FWvkPKMEYaM-92" value="dev.hebdigital.net" style="text;html=1;strokeColor=none;fillColor=none;align=center;verticalAlign=middle;whiteSpace=wrap;rounded=0;" vertex="1" parent="1">
          <mxGeometry x="970" y="1265" width="100" height="20" as="geometry" />
        </mxCell>
        <mxCell id="8I7yJncR_FWvkPKMEYaM-93" value="https://srw2011223.ad.heb.com.mx:8443/api/channel/{channel}/customer/{idCliente}" style="text;html=1;strokeColor=none;fillColor=none;align=center;verticalAlign=middle;whiteSpace=wrap;rounded=0;" vertex="1" parent="1">
          <mxGeometry x="535" y="690" width="450" height="20" as="geometry" />
        </mxCell>
        <UserObject label="srw2011223.ad.heb.com.mx" link="srw2011223.ad.heb.com.mx" id="8I7yJncR_FWvkPKMEYaM-94">
          <mxCell style="text;html=1;strokeColor=none;fillColor=none;align=center;verticalAlign=middle;whiteSpace=wrap;rounded=0;" vertex="1" parent="1">
            <mxGeometry x="1081" y="426" width="160" height="20" as="geometry" />
          </mxCell>
        </UserObject>
        <UserObject label="http://192.168.93.65:9505/InventarioBodega_PortTypeEndpoint1?wsdl" link="http://192.168.93.65:9505/InventarioBodega_PortTypeEndpoint1?wsdl" id="8I7yJncR_FWvkPKMEYaM-95">
          <mxCell style="text;html=1;strokeColor=none;fillColor=none;align=center;verticalAlign=middle;whiteSpace=wrap;rounded=0;" vertex="1" parent="1">
            <mxGeometry x="524.69" y="740" width="400" height="20" as="geometry" />
          </mxCell>
        </UserObject>
        <mxCell id="8I7yJncR_FWvkPKMEYaM-96" value="" style="rounded=1;arcSize=10;dashed=1;fillColor=none;gradientColor=none;dashPattern=1 1;strokeWidth=2;" vertex="1" parent="1">
          <mxGeometry x="-430" y="630" width="520" height="320" as="geometry" />
        </mxCell>
        <mxCell id="8I7yJncR_FWvkPKMEYaM-97" value="SDD201080&lt;br&gt;SCD201080" style="text;html=1;strokeColor=none;fillColor=none;align=center;verticalAlign=middle;whiteSpace=wrap;rounded=0;" vertex="1" parent="1">
          <mxGeometry x="-75.38" y="905" width="92.5" height="25" as="geometry" />
        </mxCell>
        <mxCell id="8I7yJncR_FWvkPKMEYaM-98" value="" style="aspect=fixed;html=1;points=[];align=center;image;fontSize=12;image=img/lib/azure2/databases/SQL_Server.svg;" vertex="1" parent="1">
          <mxGeometry x="-382.1300000000001" y="836" width="68" height="68" as="geometry" />
        </mxCell>
        <mxCell id="8I7yJncR_FWvkPKMEYaM-99" value="SDD201050&lt;br&gt;SCD201050" style="text;html=1;strokeColor=none;fillColor=none;align=center;verticalAlign=middle;whiteSpace=wrap;rounded=0;" vertex="1" parent="1">
          <mxGeometry x="-394.38" y="905" width="92.5" height="25" as="geometry" />
        </mxCell>
        <mxCell id="8I7yJncR_FWvkPKMEYaM-100" value="" style="aspect=fixed;html=1;points=[];align=center;image;fontSize=12;image=img/lib/azure2/databases/SQL_Server.svg;" vertex="1" parent="1">
          <mxGeometry x="-63.13000000000011" y="836" width="68" height="68" as="geometry" />
        </mxCell>
        <mxCell id="8I7yJncR_FWvkPKMEYaM-101" value="SDD2011155&lt;br&gt;SCD2011155" style="text;html=1;strokeColor=none;fillColor=none;align=center;verticalAlign=middle;whiteSpace=wrap;rounded=0;" vertex="1" parent="1">
          <mxGeometry x="-75.38" y="741" width="92.5" height="29" as="geometry" />
        </mxCell>
        <mxCell id="8I7yJncR_FWvkPKMEYaM-102" value="" style="aspect=fixed;html=1;points=[];align=center;image;fontSize=12;image=img/lib/azure2/databases/SQL_Server.svg;" vertex="1" parent="1">
          <mxGeometry x="-63.13000000000011" y="664.25" width="68" height="68" as="geometry" />
        </mxCell>
        <mxCell id="8I7yJncR_FWvkPKMEYaM-103" value="SDD2010107&lt;br&gt;SCD2010107" style="text;html=1;strokeColor=none;fillColor=none;align=center;verticalAlign=middle;whiteSpace=wrap;rounded=0;" vertex="1" parent="1">
          <mxGeometry x="-397.38" y="731" width="92.5" height="29" as="geometry" />
        </mxCell>
        <mxCell id="8I7yJncR_FWvkPKMEYaM-104" value="" style="aspect=fixed;html=1;points=[];align=center;image;fontSize=12;image=img/lib/azure2/databases/SQL_Server.svg;" vertex="1" parent="1">
          <mxGeometry x="-382.1300000000001" y="657" width="68" height="68" as="geometry" />
        </mxCell>
        <mxCell id="8I7yJncR_FWvkPKMEYaM-105" value="5001" style="text;html=1;strokeColor=none;fillColor=none;align=center;verticalAlign=middle;whiteSpace=wrap;rounded=0;" vertex="1" parent="1">
          <mxGeometry x="200" y="712.25" width="40" height="20" as="geometry" />
        </mxCell>
        <mxCell id="8I7yJncR_FWvkPKMEYaM-106" value="&lt;font style=&quot;font-size: 18px&quot;&gt;Desarrollo&lt;/font&gt;" style="text;html=1;strokeColor=none;fillColor=none;align=center;verticalAlign=middle;whiteSpace=wrap;rounded=0;" vertex="1" parent="1">
          <mxGeometry x="-530" y="610" width="70" height="20" as="geometry" />
        </mxCell>
        <mxCell id="8I7yJncR_FWvkPKMEYaM-107" value="&lt;font style=&quot;font-size: 14px&quot;&gt;PRODUCCION&lt;/font&gt;" style="text;html=1;strokeColor=none;fillColor=none;align=center;verticalAlign=middle;whiteSpace=wrap;rounded=0;" vertex="1" parent="1">
          <mxGeometry x="-545" y="111" width="100" height="20" as="geometry" />
        </mxCell>
        <mxCell id="8I7yJncR_FWvkPKMEYaM-108" value="&lt;font style=&quot;font-size: 14px&quot;&gt;Base de Datos&lt;/font&gt;" style="text;html=1;strokeColor=none;fillColor=none;align=center;verticalAlign=middle;whiteSpace=wrap;rounded=0;" vertex="1" parent="1">
          <mxGeometry x="-402.2" y="70" width="102.13" height="20" as="geometry" />
        </mxCell>
        <mxCell id="8I7yJncR_FWvkPKMEYaM-109" value="Puertos: 80.84:80.85" style="text;html=1;strokeColor=none;fillColor=none;align=center;verticalAlign=middle;whiteSpace=wrap;rounded=0;" vertex="1" parent="1">
          <mxGeometry x="244.94" y="80" width="126.25" height="20" as="geometry" />
        </mxCell>
      </root>
    </mxGraphModel>
  </diagram>
</mxfile>
